<?xml version="1.0" encoding="utf-8"?>
<!-- Generator: Adobe Illustrator 15.1.0, SVG Export Plug-In . SVG Version: 6.00 Build 0)  -->
<!DOCTYPE svg PUBLIC "-//W3C//DTD SVG 1.1//EN" "http://www.w3.org/Graphics/SVG/1.1/DTD/svg11.dtd">
<svg version="1.1" id="Layer_1" xmlns="http://www.w3.org/2000/svg" xmlns:xlink="http://www.w3.org/1999/xlink" x="0px" y="0px"
	 width="7px" height="9.47px" viewBox="3.5 4.265 7 9.47" enable-background="new 3.5 4.265 7 9.47" xml:space="preserve">
<g>
	<path fill="#FFFFFF" d="M9.563,6.202H4.437c-0.193,0-0.35,0.157-0.35,0.35v6.833c0,0.192,0.157,0.35,0.35,0.35h5.125
		c0.193,0,0.351-0.157,0.351-0.35V6.552C9.913,6.36,9.756,6.202,9.563,6.202z M4.787,13.035V6.902h4.426v6.133H4.787z"/>
	<path fill="#FFFFFF" d="M10.15,4.716H9.012C9.003,4.702,8.948,4.661,8.948,4.615c0-0.193-0.157-0.35-0.351-0.35H5.402
		c-0.193,0-0.351,0.157-0.351,0.35c0,0.045-0.054,0.087-0.063,0.101H3.85c-0.193,0-0.35,0.157-0.35,0.351
		c0,0.193,0.157,0.35,0.35,0.35h6.3c0.192,0,0.35-0.157,0.35-0.35C10.5,4.874,10.343,4.716,10.15,4.716z"/>
</g>
</svg>
